<?xml version="1.0" encoding="UTF-8" standalone="no"?>
<svg
   version="1.1"
   width="48"
   height="48"
   id="svg6649"
   sodipodi:docname="48.svg"
   inkscape:version="1.4.3 (0d15f75042, 2025-12-25)"
   xml:space="preserve"
   xmlns:inkscape="http://www.inkscape.org/namespaces/inkscape"
   xmlns:sodipodi="http://sodipodi.sourceforge.net/DTD/sodipodi-0.dtd"
   xmlns:xlink="http://www.w3.org/1999/xlink"
   xmlns="http://www.w3.org/2000/svg"
   xmlns:svg="http://www.w3.org/2000/svg"
   xmlns:rdf="http://www.w3.org/1999/02/22-rdf-syntax-ns#"
   xmlns:cc="http://creativecommons.org/ns#"
   xmlns:dc="http://purl.org/dc/elements/1.1/"><sodipodi:namedview
     id="namedview1"
     pagecolor="#ffffff"
     bordercolor="#000000"
     borderopacity="0.25"
     inkscape:showpageshadow="2"
     inkscape:pageopacity="0.0"
     inkscape:pagecheckerboard="0"
     inkscape:deskcolor="#d1d1d1"
     showgrid="false"
     inkscape:current-layer="g21"><inkscape:grid
       id="grid1"
       units="px"
       originx="0"
       originy="0"
       spacingx="0.5"
       spacingy="0.5"
       empcolor="#0099e5"
       empopacity="0.30196078"
       color="#0099e5"
       opacity="0.078431373"
       empspacing="2"
       enabled="true"
       visible="false" /></sodipodi:namedview><defs
     id="defs6651"><linearGradient
       id="linearGradient1"
       inkscape:collect="always"><stop
         style="stop-color:#d4d4d4;stop-opacity:1;"
         offset="0"
         id="stop1" /><stop
         style="stop-color:#abacae;stop-opacity:1;"
         offset="1"
         id="stop2" /></linearGradient><inkscape:path-effect
       effect="offset"
       id="path-effect39"
       is_visible="true"
       lpeversion="1.3"
       linejoin_type="miter"
       unit="px"
       offset="-1"
       miter_limit="4"
       attempt_force_join="false"
       update_on_knot_move="true" /><inkscape:path-effect
       effect="offset"
       id="path-effect33"
       is_visible="true"
       lpeversion="1.3"
       linejoin_type="miter"
       unit="px"
       offset="-1"
       miter_limit="4"
       attempt_force_join="false"
       update_on_knot_move="true" /><linearGradient
       id="linearGradient1201"><stop
         id="stop1193"
         style="stop-color:#ffffff;stop-opacity:1"
         offset="0" /><stop
         id="stop1195"
         style="stop-color:#ffffff;stop-opacity:0.23529412"
         offset="0.06781636" /><stop
         id="stop1197"
         style="stop-color:#ffffff;stop-opacity:0.15686275"
         offset="0.93196869" /><stop
         id="stop1199"
         style="stop-color:#ffffff;stop-opacity:0.39215687"
         offset="1" /></linearGradient><linearGradient
       id="linearGradient3688-166-749"><stop
         id="stop2883"
         style="stop-color:#181818;stop-opacity:1"
         offset="0" /><stop
         id="stop2885"
         style="stop-color:#181818;stop-opacity:0"
         offset="1" /></linearGradient><linearGradient
       id="linearGradient3702-501-757"><stop
         id="stop2895"
         style="stop-color:#181818;stop-opacity:0"
         offset="0" /><stop
         id="stop2897"
         style="stop-color:#181818;stop-opacity:1"
         offset="0.5" /><stop
         id="stop2899"
         style="stop-color:#181818;stop-opacity:0"
         offset="1" /></linearGradient><radialGradient
       cx="4.9929786"
       cy="43.5"
       r="2.5"
       fx="4.9929786"
       fy="43.5"
       id="radialGradient3013-6"
       xlink:href="#linearGradient3688-166-749"
       gradientUnits="userSpaceOnUse"
       gradientTransform="matrix(2.003784,0,0,0.89999994,29.98813,4.8500025)" /><radialGradient
       cx="4.9929786"
       cy="43.5"
       r="2.5"
       fx="4.9929786"
       fy="43.5"
       id="radialGradient3015-1"
       xlink:href="#linearGradient3688-166-749"
       gradientUnits="userSpaceOnUse"
       gradientTransform="matrix(2.003784,0,0,0.89999994,-18.01187,-83.149997)" /><linearGradient
       x1="38.999996"
       y1="5.9999938"
       x2="38.999996"
       y2="41.945408"
       id="linearGradient3058-5"
       xlink:href="#linearGradient1201"
       gradientUnits="userSpaceOnUse"
       gradientTransform="translate(4e-6,1.0000062)" /><linearGradient
       xlink:href="#linearGradient3702-501-757"
       id="linearGradient1191"
       gradientUnits="userSpaceOnUse"
       x1="25.058096"
       y1="47.027729"
       x2="25.058096"
       y2="39.999443"
       gradientTransform="matrix(1.1428571,0,0,0.6428571,-3.428569,16.035716)" /><linearGradient
       xlink:href="#linearGradient870"
       id="linearGradient930-9-2"
       x1="16.767664"
       y1="2.7676599"
       x2="16.767664"
       y2="29.896721"
       gradientUnits="userSpaceOnUse"
       gradientTransform="matrix(1.444444,0,0,1.444444,0.888913,1.888891)" /><linearGradient
       id="linearGradient870"><stop
         id="stop866"
         offset="0"
         style="stop-color:#273445;stop-opacity:1;" /><stop
         id="stop868"
         offset="1"
         style="stop-color:#0e141f;stop-opacity:1;" /></linearGradient><linearGradient
       inkscape:collect="always"
       xlink:href="#linearGradient1"
       id="linearGradient2"
       x1="37"
       y1="5"
       x2="37"
       y2="44.499996"
       gradientUnits="userSpaceOnUse" /><linearGradient
       inkscape:collect="always"
       xlink:href="#linearGradient1"
       id="linearGradient4"
       x1="25"
       y1="5"
       x2="25"
       y2="44.499996"
       gradientUnits="userSpaceOnUse"
       gradientTransform="translate(0,-1)" /><linearGradient
       inkscape:collect="always"
       xlink:href="#linearGradient1"
       id="linearGradient6"
       x1="11"
       y1="6"
       x2="11"
       y2="44.499996"
       gradientUnits="userSpaceOnUse" /></defs><metadata
     id="metadata6654"><rdf:RDF><cc:Work
         rdf:about=""><dc:format>image/svg+xml</dc:format><dc:type
           rdf:resource="http://purl.org/dc/dcmitype/StillImage" /></cc:Work></rdf:RDF></metadata><rect
     style="color:#000000;display:inline;overflow:visible;visibility:visible;opacity:1;fill:url(#linearGradient930-9-2);fill-opacity:1;fill-rule:nonzero;stroke:#000000;stroke-width:1;stroke-opacity:0.50196081;marker:none;enable-background:accumulate;font-variation-settings:normal;vector-effect:none;stroke-linecap:butt;stroke-linejoin:miter;stroke-miterlimit:4;stroke-dasharray:none;stroke-dashoffset:0;stop-color:#000000;stop-opacity:1"
     id="rect5505-21-1"
     y="5.4999952"
     x="4.5000153"
     ry="4"
     rx="4"
     height="39"
     width="39" /><path
     id="rect6741-2"
     style="baseline-shift:baseline;display:inline;overflow:visible;opacity:0.35;vector-effect:none;fill:url(#linearGradient3058-5);stroke-linecap:round;stroke-linejoin:round;enable-background:accumulate;stop-color:#000000;stop-opacity:1"
     d="M 8.5,6 C 6.5696486,6 5,7.5696486 5,9.5 v 31 C 5,42.430351 6.5696486,44 8.5,44 h 31 C 41.430351,44 43,42.430351 43,40.5 V 9.5 C 43,7.5696486 41.430351,6 39.5,6 Z m 0,1 H 12 c 1.333333,1.3333333 2.666667,2 4,2 h 2 c 0.333333,-0.6666667 1.333333,-1.3333333 3,-2 h 8 v 4 c 1.666667,-1.3333333 2.666667,-2.6666667 3,-4 1,0.6666667 1.333333,1.3333333 1,2 1.333333,0 2.666667,-0.6666667 4,-2 h 2.5 C 40.893649,7 42,8.1063514 42,9.5 v 31 C 42,41.893649 40.893649,43 39.5,43 H 26 l 3,-2 c -1.666667,-1.666667 -4,-2.666667 -7,-3 0.333333,1.666667 0,3.333333 -1,5 l -1,-2 c -1.333333,1.333333 -2.666667,2 -4,2 H 8.5 C 7.1063514,43 6,41.893649 6,40.5 V 9.5 C 6,8.1063514 7.1063514,7 8.5,7 Z"
     sodipodi:nodetypes="sssssssssscccccccccssssccccccssss" /><path
     id="path4"
     style="baseline-shift:baseline;display:inline;overflow:visible;opacity:0.3;vector-effect:none;fill:none;fill-opacity:1;stroke:#ffffff;stroke-linecap:round;stroke-linejoin:round;stroke-opacity:0.501961;enable-background:accumulate;stop-color:#000000;stop-opacity:1"
     d="m 12,7 c 1.333333,1.3333333 2.666667,2 4,2 h 2 C 18.333333,8.3333333 19.333333,7.6666667 21,7 M 37,7 C 35.666667,8.3333333 34.333333,9 33,9 33.333333,8.3333333 33,7.6666667 32,7 31.666667,8.3333333 30.666667,9.666667 29,11 V 7"
     sodipodi:nodetypes="cccccccc" /><path
     id="path5"
     style="baseline-shift:baseline;display:inline;overflow:visible;opacity:0.1;vector-effect:none;fill:none;stroke:#ffffff;stroke-linecap:round;stroke-linejoin:round;stroke-opacity:0.501961;enable-background:accumulate;stop-color:#000000;stop-opacity:1"
     d="m 26,43 3,-2 c -1.666667,-1.666667 -4,-2.666667 -7,-3 0.333333,1.666667 0,3.333333 -1,5 l -1,-2 c -1.333333,1.333333 -2.666667,2 -4,2"
     sodipodi:nodetypes="cccccc" /><g
     id="g18"
     transform="translate(1,-1)"><path
       id="path14"
       style="opacity:0.15;fill:#ffffff;fill-opacity:1;stroke:none;stroke-linecap:round;stroke-linejoin:round;stroke-opacity:0.501961"
       d="m 11,16 c -2.7614237,0 -5,2.238576 -5,5 0.00339,0.336229 0.040689,0.671258 0.1113281,1 C 6.5857413,19.675834 8.6279136,18.004891 11,18 c 2.372086,0.0049 4.414259,1.675833 4.888672,4 C 15.959312,21.671258 15.99661,21.336229 16,21 16,18.238576 13.761424,16 11,16 Z m 0,3 -0.478516,4.546875 c -0.285547,0.05568 -0.5591846,0.160772 -0.8085934,0.310547 L 8,23 8.8574219,24.712891 c -0.1671218,0.277941 -0.2785676,0.585743 -0.328125,0.90625 L 7,26 8.5292969,26.382812 c 0.049802,0.319832 0.1612397,0.626949 0.328125,0.904297 L 8,29 9.7128906,28.142578 c 0.099079,0.05981 0.2021911,0.112675 0.3085934,0.158203 L 10,38 h 2 l -0.02148,-9.699219 c 0.106402,-0.04553 0.209515,-0.09839 0.308593,-0.158203 L 14,29 13.142578,27.287109 c 0.167122,-0.277941 0.278568,-0.585743 0.328125,-0.90625 L 15,26 13.470703,25.617188 c -0.0498,-0.319832 -0.16124,-0.626949 -0.328125,-0.904297 L 14,23 12.287109,23.857422 C 12.0377,23.707647 11.764063,23.602554 11.478516,23.546875 Z m 0,6 c 0.552285,0 1,0.447715 1,1 0,0.552285 -0.447715,1 -1,1 -0.552285,0 -1,-0.447715 -1,-1 0,-0.552285 0.447715,-1 1,-1 z"
       sodipodi:nodetypes="scccccsccccccccccccccccccccccccccsssss" /><path
       id="path13"
       style="opacity:1;fill:url(#linearGradient6);fill-opacity:1;stroke:none;stroke-linecap:round;stroke-linejoin:round;stroke-opacity:0.501961"
       d="m 11,15 c -2.7614237,0 -5,2.238576 -5,5 0.00339,0.336229 0.040689,0.671258 0.1113281,1 C 6.5857413,18.675834 8.6279136,17.004891 11,17 c 2.372086,0.0049 4.414259,1.675833 4.888672,4 C 15.959312,20.671258 15.99661,20.336229 16,20 16,17.238576 13.761424,15 11,15 Z m 0,3 -0.478516,4.546875 c -0.285547,0.05568 -0.5591846,0.160772 -0.8085934,0.310547 L 8,22 8.8574219,23.712891 c -0.1671218,0.277941 -0.2785676,0.585743 -0.328125,0.90625 L 7,25 8.5292969,25.382812 c 0.049802,0.319832 0.1612397,0.626949 0.328125,0.904297 L 8,28 9.7128906,27.142578 c 0.099079,0.05981 0.2021911,0.112675 0.3085934,0.158203 L 10,37 h 2 l -0.02148,-9.699219 c 0.106402,-0.04553 0.209515,-0.09839 0.308593,-0.158203 L 14,28 13.142578,26.287109 c 0.167122,-0.277941 0.278568,-0.585743 0.328125,-0.90625 L 15,25 13.470703,24.617188 c -0.0498,-0.319832 -0.16124,-0.626949 -0.328125,-0.904297 L 14,22 12.287109,22.857422 C 12.0377,22.707647 11.764063,22.602554 11.478516,22.546875 Z m 0,6 c 0.552285,0 1,0.447715 1,1 0,0.552285 -0.447715,1 -1,1 -0.552285,0 -1,-0.447715 -1,-1 0,-0.552285 0.447715,-1 1,-1 z"
       sodipodi:nodetypes="scccccsccccccccccccccccccccccccccsssss" /><path
       id="path10"
       style="opacity:0.15;fill:#000000;fill-opacity:1;stroke:none;stroke-linecap:round;stroke-linejoin:round;stroke-opacity:0.501961"
       d="m 11,15 c -2.7614237,0 -5,2.238576 -5,5 0.0033,0.327006 0.038546,0.6526 0.1054688,0.972656 C 6.5495369,18.845711 8.3447532,17.215068 10.552734,17.019531 10.699933,17.006495 10.849413,17 11,17 c 0.148255,3.06e-4 0.296031,0.0065 0.441406,0.01953 0.0019,1.69e-4 0.0039,-1.7e-4 0.0059,0 2.207981,0.195537 4.003197,1.826179 4.447265,3.953125 C 15.961454,20.6526 15.996703,20.327006 16,20 16,17.238576 13.761424,15 11,15 Z m 0,4 c -0.0352,7.3e-5 -0.07042,0.0011 -0.105469,0.002 l -0.373047,3.544922 c -0.285547,0.05568 -0.5591846,0.160772 -0.8085934,0.310547 L 8,22 8.8574219,23.712891 c -0.1108601,0.184372 -0.1977642,0.382246 -0.2578125,0.58789 l 1.1132812,0.556641 c 0.1079968,-0.06485 0.2198552,-0.122208 0.3359374,-0.169922 0.08536,-0.260525 0.275115,-0.472849 0.519531,-0.589844 L 11,20 l 0.431641,4.097656 c 0.244416,0.116995 0.434169,0.329319 0.519531,0.589844 0.116082,0.04771 0.227941,0.105068 0.335937,0.169922 l 1.113282,-0.556641 c -0.06011,-0.205623 -0.146898,-0.403559 -0.257813,-0.58789 L 14,22 12.287109,22.857422 C 12.0377,22.707647 11.764063,22.602554 11.478516,22.546875 L 11.105469,19.001953 C 11.070418,19.00115 11.0352,19.000073 11,19 Z m 2.666016,5.666016 -0.523438,1.046875 c 0.05569,0.09256 0.105325,0.188556 0.148438,0.287109 0.08621,-0.197301 0.146648,-0.405461 0.179687,-0.619141 L 15,25 Z m -5.3320316,0.002 L 7,25 8.5292969,25.382812 C 8.562479,25.59591 8.6229087,25.803236 8.7089844,26 c 0.043102,-0.09864 0.092734,-0.194469 0.1484375,-0.287109 z M 11,26 c -0.552285,0 -1,0.447715 -1,1 0,0.552285 0.447715,1 1,1 0.552285,0 1,-0.447715 1,-1 0,-0.552285 -0.447715,-1 -1,-1 z m 2.666016,1.332031 -0.195313,0.04883 c -0.01668,0.107899 -0.03984,0.213995 -0.07031,0.31836 L 14,28 Z m -5.3320316,0.002 L 8,28 8.5996094,27.699219 c -0.030335,-0.103762 -0.05361,-0.209141 -0.070312,-0.316407 z M 10.017578,29.298828 10,37 h 0.0039 l 0.01758,-7.699219 c -0.0015,-6.31e-4 -0.0024,-0.0013 -0.0039,-0.002 z m 1.964844,0 c -0.0015,6.34e-4 -0.0024,0.0013 -0.0039,0.002 L 11.996094,37 H 12 Z" /><path
       id="path9"
       style="opacity:0.15;fill:#000000;fill-opacity:1;stroke:none;stroke-linecap:round;stroke-linejoin:round;stroke-opacity:0.501961"
       d="m 11,15 c -2.7614237,0 -5,2.238576 -5,5 0.0016,0.158467 0.010741,0.317208 0.027344,0.474609 C 6.2901653,17.96039 8.4162022,16 11,16 c 2.583799,0 4.709835,1.96039 4.972656,4.474609 C 15.989259,20.317207 15.998402,20.158468 16,20 16,17.238576 13.761424,15 11,15 Z m 0,3 -0.478516,4.546875 c -0.285547,0.05568 -0.5591846,0.160772 -0.8085934,0.310547 L 8,22 8.6679688,23.333984 9.7128906,23.857422 C 9.9622994,23.707647 10.235937,23.602555 10.521484,23.546875 L 11,19 l 0.478516,4.546875 c 0.285547,0.05568 0.559184,0.160772 0.808593,0.310547 L 13.332031,23.333984 14,22 12.287109,22.857422 C 12.0377,22.707647 11.764063,22.602554 11.478516,22.546875 Z m 2.380859,6.236328 -0.238281,0.476563 c 0.146281,0.243106 0.249731,0.509744 0.306641,0.787109 0.008,-0.03928 0.01535,-0.07944 0.02148,-0.119141 L 15,25 13.470703,24.617188 c -0.0201,-0.129098 -0.05006,-0.257027 -0.08984,-0.38086 z m -4.7617184,0.002 c -0.039905,0.124388 -0.069792,0.251176 -0.089844,0.38086 L 7,25 8.5292969,25.382812 c 0.00615,0.03949 0.013469,0.07812 0.021484,0.117188 0.056768,-0.277819 0.1602197,-0.543596 0.3066407,-0.787109 z M 10.132812,25.5 C 10.047728,25.647087 10,25.817856 10,26 c 0,0.552285 0.447715,1 1,1 0.552285,0 1,-0.447715 1,-1 0,-0.182144 -0.04773,-0.352913 -0.132812,-0.5 C 11.694283,25.798901 11.370141,26 11,26 10.629859,26 10.305717,25.798901 10.132812,25.5 Z m 3.248047,1.261719 c -0.05872,0.183029 -0.13878,0.35991 -0.238281,0.52539 L 13.332031,27.666016 14,28 Z m -4.7617184,0.002 L 8,28 8.6679688,27.666016 8.8574219,27.287109 C 8.7578981,27.12171 8.6779126,26.946629 8.6191406,26.763672 Z M 10.019531,28.300781 10,37 h 0.002 l 0.01953,-8.699219 z m 1.958985,0 L 11.998047,37 H 12 l -0.01953,-8.699219 z" /></g><g
     id="g21"><path
       id="path21"
       style="opacity:0.15;fill:#ffffff;fill-opacity:1;stroke:none;stroke-width:1;stroke-linecap:round;stroke-linejoin:round;stroke-dasharray:none;stroke-opacity:1"
       d="m 24,23 a 5,5 0 0 0 -5,5 h 10 a 5,5 0 0 0 -5,-5 z m 0,1 a 4,4 0 0 1 3.873047,3 H 20.126953 A 4,4 0 0 1 24,24 Z" /><path
       id="path18"
       style="opacity:1;fill:url(#linearGradient4);fill-opacity:1;stroke:none;stroke-width:1;stroke-linecap:round;stroke-linejoin:round;stroke-dasharray:none;stroke-opacity:1"
       d="m 24,22 a 5,5 0 0 0 -5,5 h 10 a 5,5 0 0 0 -5,-5 z m 0,1 a 4,4 0 0 1 3.873047,3 H 20.126953 A 4,4 0 0 1 24,23 Z" /><path
       id="path6"
       style="opacity:0.15;fill:#000000;fill-opacity:1;stroke:none;stroke-width:1;stroke-linecap:round;stroke-linejoin:round;stroke-dasharray:none;stroke-opacity:1"
       d="m 24,22 a 5,5 0 0 0 -5,5 h 0.417969 A 5,5 0 0 1 20.207031,25.755859 4,4 0 0 1 24,23 4,4 0 0 1 27.792969,25.755859 5,5 0 0 1 28.582031,27 H 29 a 5,5 0 0 0 -5,-5 z m -2.646484,4 a 4,4 0 0 0 -0.81836,1 h 6.929688 a 4,4 0 0 0 -0.81836,-1 z" /><path
       id="path3"
       style="opacity:0.15;fill:#000000;fill-opacity:1;stroke:none;stroke-width:1;stroke-linecap:round;stroke-linejoin:round;stroke-dasharray:none;stroke-opacity:1"
       d="m 24,22 a 5,5 0 0 0 -5,5 h 0.101562 A 5,5 0 0 1 23.466797,23.037109 4,4 0 0 1 24,23 5,5 0 0 1 24.533203,23.037109 5,5 0 0 1 28.898438,27 H 29 a 5,5 0 0 0 -5,-5 z m -3.464844,4 a 4,4 0 0 0 -0.408203,1 h 7.746094 a 4,4 0 0 0 -0.408203,-1 z" /></g><path
     id="path22"
     style="opacity:1;fill:#0e141f;fill-opacity:1;stroke:none;stroke-width:1;stroke-linecap:round;stroke-linejoin:round;stroke-dasharray:none;stroke-opacity:0.501961"
     d="m 37,16 c -1.107655,1.44e-4 -2.478623,0.522725 -3,1.5 0.04357,0.05083 0.08866,0.100825 0.134766,0.150391 C 33.443682,18.199992 33,19.048404 33,20 c 0,1.656854 1.343146,3 3,3 0.212042,2.22e-4 0.42351,-0.02204 0.630859,-0.06641 L 35,30 c 0,0 -1.720222,-3.601803 -3,-3 -2.693686,1.266678 1,6.5 1,9 h 7 c 0,0 1.371219,-6.670673 1,-10 l -1,-7 c 0,-1.656854 -1.343146,-3 -3,-3 z m 0,1.009766 c 1.098738,0 1.971109,0.859534 1.990234,1.953125 -1.58511,-0.36258 -2.76103,-0.884195 -3.570312,-1.507813 0.08696,-0.0553 0.182401,-0.106749 0.285156,-0.154297 C 36.107695,17.114478 36.605086,17.009817 37,17.009766 Z m -2.097656,1.322265 C 35.900065,19.072071 37.265539,19.62833 39,20 c -0.0393,0.208298 -0.09002,0.405476 -0.146484,0.595703 C 38.91022,20.405279 38.960641,20.208606 39,20 c -0.330588,-0.07084 -0.647348,-0.148199 -0.951172,-0.232422 0.18401,0.449052 0.378697,0.940273 0.572266,1.453125 -0.212115,0.469454 -0.489707,0.870837 -0.833985,1.201172 l 0.185547,-0.808594 -1.552734,0.332031 c -0.137532,0.02943 -0.278206,0.04507 -0.419922,0.04492 -1.111009,0 -1.990234,-0.879225 -1.990234,-1.990234 0,-0.703021 0.352523,-1.314604 0.892578,-1.667969 z m 3.904297,2.404297 c -0.04657,0.142136 -0.09766,0.278614 -0.154297,0.410156 0.05649,-0.131194 0.107743,-0.268457 0.154297,-0.410156 z m 0.591797,1.201172 0.482421,3.369141 -1.166015,0.388671 -0.5625,-2.248046 c 0.518694,-0.408434 0.932639,-0.916224 1.246094,-1.509766 z m -1.634766,0.507812 c -0.09488,0.08936 -0.196039,0.172975 -0.300781,0.251954 0.104781,-0.07925 0.205738,-0.162394 0.300781,-0.251954 z M 37.40625,22.744141 C 37.277746,22.837017 37.142838,22.922213 37,23 c 0.142681,-0.0777 0.278094,-0.162951 0.40625,-0.255859 z M 37.339844,24.359375 38,27 40.017578,26.328125 c 0.119485,1.476158 -0.101211,3.825032 -0.378906,5.777344 -0.145846,1.025361 -0.302819,1.95331 -0.423828,2.621093 -0.0186,0.102636 -0.03521,0.188739 -0.04883,0.263672 H 33.890625 C 33.665883,33.921699 33.171306,32.716298 32.818359,31.765625 32.58048,31.124891 32.362056,30.498893 32.216797,29.943359 32.071538,29.387826 32.007122,28.90246 32.03125,28.580078 c 0.01608,-0.214921 0.06359,-0.348438 0.117188,-0.435547 0.04043,-0.06571 0.08463,-0.117759 0.175781,-0.173828 0.0091,0.0054 0.01877,0.01069 0.0293,0.01758 0.01635,0.01069 0.03348,0.02283 0.05273,0.03711 0.192559,0.142788 0.490502,0.470266 0.751953,0.835937 0.261451,0.365671 0.499461,0.76906 0.667969,1.074219 0.168508,0.305159 0.167056,0.301796 0.261719,0.5 l 1.246093,2.607422 z" /><g
     id="g1"
     transform="translate(0,-1)"><path
       id="path40"
       style="opacity:0.15;fill:#ffffff;fill-opacity:1;stroke:none;stroke-width:1;stroke-linecap:round;stroke-linejoin:round;stroke-dasharray:none;stroke-opacity:0.501961"
       d="m 37,18 c -1.107655,1.44e-4 -2.478623,0.522725 -3,1.5 0.04357,0.05083 0.08866,0.100825 0.134766,0.150391 C 33.443682,20.199992 33,21.048404 33,22 c 0,1.656854 1.343146,3 3,3 0.212042,2.22e-4 0.42351,-0.02204 0.630859,-0.06641 L 35,32 c 0,0 -1.720222,-3.601803 -3,-3 -2.693686,1.266678 1,6.5 1,9 h 7 c 0,0 1.371219,-6.670673 1,-10 l -1,-7 c 0,-1.656854 -1.343146,-3 -3,-3 z m 0,1.009766 c 1.098738,0 1.971109,0.859534 1.990234,1.953125 -1.58511,-0.36258 -2.76103,-0.884195 -3.570312,-1.507813 0.08696,-0.0553 0.182401,-0.106749 0.285156,-0.154297 C 36.107695,19.114478 36.605086,19.009817 37,19.009766 Z m -2.097656,1.322265 C 35.900065,21.072071 37.265539,21.62833 39,22 38.9607,22.208298 38.90998,22.405476 38.853516,22.595703 38.91022,22.405279 38.960641,22.208606 39,22 c -0.330588,-0.07084 -0.647348,-0.148199 -0.951172,-0.232422 0.18401,0.449052 0.378697,0.940273 0.572266,1.453125 -0.212115,0.469454 -0.489707,0.870837 -0.833985,1.201172 l 0.185547,-0.808594 -1.552734,0.332031 c -0.137532,0.02943 -0.278206,0.04507 -0.419922,0.04492 -1.111009,0 -1.990234,-0.879225 -1.990234,-1.990234 0,-0.703021 0.352523,-1.314604 0.892578,-1.667969 z m 3.904297,2.404297 c -0.04657,0.142136 -0.09766,0.278614 -0.154297,0.410156 0.05649,-0.131194 0.107743,-0.268457 0.154297,-0.410156 z m 0.591797,1.201172 0.482421,3.369141 -1.166015,0.388671 -0.5625,-2.248046 c 0.518694,-0.408434 0.932639,-0.916224 1.246094,-1.509766 z m -1.634766,0.507812 c -0.09488,0.08936 -0.196039,0.172975 -0.300781,0.251954 0.104781,-0.07925 0.205738,-0.162394 0.300781,-0.251954 z M 37.40625,24.744141 C 37.277746,24.837017 37.142838,24.922213 37,25 c 0.142681,-0.0777 0.278094,-0.162951 0.40625,-0.255859 z M 37.339844,26.359375 38,29 40.017578,28.328125 c 0.119485,1.476158 -0.101211,3.825032 -0.378906,5.777344 -0.145846,1.025361 -0.302819,1.95331 -0.423828,2.621093 -0.0186,0.102636 -0.03521,0.188739 -0.04883,0.263672 H 33.890625 C 33.665883,35.921699 33.171306,34.716298 32.818359,33.765625 32.58048,33.124891 32.362056,32.498893 32.216797,31.943359 32.071538,31.387826 32.007122,30.90246 32.03125,30.580078 c 0.01608,-0.214921 0.06359,-0.348438 0.117188,-0.435547 0.04043,-0.06571 0.08463,-0.117759 0.175781,-0.173828 0.0091,0.0054 0.01877,0.01069 0.0293,0.01758 0.01635,0.01069 0.03348,0.02283 0.05273,0.03711 0.192559,0.142788 0.490502,0.470266 0.751953,0.835937 0.261451,0.365671 0.499461,0.76906 0.667969,1.074219 0.168508,0.305159 0.167056,0.301796 0.261719,0.5 l 1.246093,2.607422 z" /><path
       id="path43"
       style="opacity:1;fill:url(#linearGradient2);fill-opacity:1;stroke:none;stroke-width:1;stroke-linecap:round;stroke-linejoin:round;stroke-dasharray:none;stroke-opacity:0.501961"
       d="m 37,17 c -1.107655,1.44e-4 -2.478623,0.522725 -3,1.5 0.04357,0.05083 0.08866,0.100825 0.134766,0.150391 C 33.443682,19.199992 33,20.048404 33,21 c 0,1.656854 1.343146,3 3,3 0.212042,2.22e-4 0.42351,-0.02204 0.630859,-0.06641 L 35,31 c 0,0 -1.720222,-3.601803 -3,-3 -2.693686,1.266678 1,6.5 1,9 h 7 c 0,0 1.371219,-6.670673 1,-10 l -1,-7 c 0,-1.656854 -1.343146,-3 -3,-3 z m 0,1.009766 c 1.098738,0 1.971109,0.859534 1.990234,1.953125 -1.58511,-0.36258 -2.76103,-0.884195 -3.570312,-1.507813 0.08696,-0.0553 0.182401,-0.106749 0.285156,-0.154297 C 36.107695,18.114478 36.605086,18.009817 37,18.009766 Z m -2.097656,1.322265 C 35.900065,20.072071 37.265539,20.62833 39,21 c -0.0393,0.208298 -0.09002,0.405476 -0.146484,0.595703 C 38.91022,21.405279 38.960641,21.208606 39,21 c -0.330588,-0.07084 -0.647348,-0.148199 -0.951172,-0.232422 0.18401,0.449052 0.378697,0.940273 0.572266,1.453125 -0.212115,0.469454 -0.489707,0.870837 -0.833985,1.201172 l 0.185547,-0.808594 -1.552734,0.332031 c -0.137532,0.02943 -0.278206,0.04507 -0.419922,0.04492 -1.111009,0 -1.990234,-0.879225 -1.990234,-1.990234 0,-0.703021 0.352523,-1.314604 0.892578,-1.667969 z m 3.904297,2.404297 c -0.04657,0.142136 -0.09766,0.278614 -0.154297,0.410156 0.05649,-0.131194 0.107743,-0.268457 0.154297,-0.410156 z m 0.591797,1.201172 0.482421,3.369141 -1.166015,0.388671 -0.5625,-2.248046 c 0.518694,-0.408434 0.932639,-0.916224 1.246094,-1.509766 z m -1.634766,0.507812 c -0.09488,0.08936 -0.196039,0.172975 -0.300781,0.251954 0.104781,-0.07925 0.205738,-0.162394 0.300781,-0.251954 z M 37.40625,23.744141 C 37.277746,23.837017 37.142838,23.922213 37,24 c 0.142681,-0.0777 0.278094,-0.162951 0.40625,-0.255859 z M 37.339844,25.359375 38,28 40.017578,27.328125 c 0.119485,1.476158 -0.101211,3.825032 -0.378906,5.777344 -0.145846,1.025361 -0.302819,1.95331 -0.423828,2.621093 -0.0186,0.102636 -0.03521,0.188739 -0.04883,0.263672 H 33.890625 C 33.665883,34.921699 33.171306,33.716298 32.818359,32.765625 32.58048,32.124891 32.362056,31.498893 32.216797,30.943359 32.071538,30.387826 32.007122,29.90246 32.03125,29.580078 c 0.01608,-0.214921 0.06359,-0.348438 0.117188,-0.435547 0.04043,-0.06571 0.08463,-0.117759 0.175781,-0.173828 0.0091,0.0054 0.01877,0.01069 0.0293,0.01758 0.01635,0.01069 0.03348,0.02283 0.05273,0.03711 0.192559,0.142788 0.490502,0.470266 0.751953,0.835937 0.261451,0.365671 0.499461,0.76906 0.667969,1.074219 0.168508,0.305159 0.167056,0.301796 0.261719,0.5 l 1.246093,2.607422 z" /><path
       id="path44"
       style="opacity:0.15;fill:#000000;fill-opacity:1;stroke:none;stroke-width:1;stroke-linecap:round;stroke-linejoin:round;stroke-dasharray:none;stroke-opacity:0.501961"
       d="m 37,17 c -1.107655,1.44e-4 -2.478623,0.522725 -3,1.5 0.04357,0.05083 0.08866,0.100825 0.134766,0.150391 C 33.443682,19.199992 33,20.048404 33,21 c 0,0.35072 0.05932,0.687157 0.169922,1 0.173568,-0.490849 0.471574,-0.923858 0.855469,-1.259766 0.0076,-0.05988 0.01863,-0.117773 0.03125,-0.175781 -0.019,-0.02131 -0.03815,-0.04288 -0.05664,-0.06445 0.04286,-0.08033 0.09081,-0.158271 0.144531,-0.232422 0.149932,-0.387033 0.416813,-0.712426 0.757813,-0.935547 0.06433,0.04772 0.129874,0.09444 0.197265,0.140625 0.393766,-0.208723 0.836623,-0.349385 1.271485,-0.419922 -0.360545,-0.185835 -0.676659,-0.386121 -0.951172,-0.597656 0.08696,-0.0553 0.182401,-0.106749 0.285156,-0.154297 0.402617,-0.186303 0.900008,-0.290964 1.294922,-0.291015 1.023346,0 1.850486,0.746529 1.974609,1.732422 C 39.603171,20.292092 40,21.099233 40,22 l 1,7 c 0.01409,0.126411 0.02591,0.257082 0.03516,0.392578 C 41.079233,28.511515 41.076406,27.685258 41,27 l -1,-7 c 0,-1.656854 -1.343146,-3 -3,-3 z m 0,3.009766 c -0.232252,3e-5 -0.500655,0.03579 -0.763672,0.103515 0.704948,0.327391 1.522302,0.60002 2.449219,0.816407 C 38.335028,20.374022 37.715041,20.009766 37,20.009766 Z m 1.685547,0.919922 c -0.218102,-0.05089 -0.430782,-0.105022 -0.636719,-0.16211 0.137392,0.335288 0.281394,0.694603 0.425781,1.06836 0.167021,0.04442 0.338438,0.08642 0.515625,0.126953 -0.0067,-0.381888 -0.116606,-0.735035 -0.304687,-1.033203 z M 34.273438,22 c -0.167821,0.292906 -0.263672,0.63399 -0.263672,1 0,0.08792 0.0049,0.175072 0.01563,0.259766 C 34.552941,23.721131 35.244109,24 36,24 c 0.212042,2.22e-4 0.42351,-0.02204 0.630859,-0.06641 l -0.234375,1.017578 c 0.0079,-0.0016 0.01555,-0.0042 0.02344,-0.0059 l 1.552734,-0.332031 -0.185547,0.808594 c 0.173756,-0.166718 0.330765,-0.352158 0.470703,-0.554687 l -0.105468,-0.419922 c 0.146504,-0.115362 0.284175,-0.238233 0.414062,-0.369141 -0.140491,-0.368964 -0.280008,-0.726157 -0.416015,-1.0625 -0.11139,0.145446 -0.2328,0.281053 -0.363282,0.40625 l 0.15625,-0.683594 c -0.07868,-0.02245 -0.155578,-0.045 -0.232421,-0.06836 -6.24e-4,-1.9e-4 -0.0013,1.89e-4 -0.002,0 l -1.289062,0.27539 C 36.28239,22.974743 36.141716,22.990382 36,22.990234 35.255185,22.990234 34.61484,22.595229 34.273438,22 Z m 2.357421,3.933594 c -0.156828,0.03356 -0.316555,0.0544 -0.476562,0.0625 L 35,31 c 0,0 -1.720222,-3.601803 -3,-3 -1.045143,0.491467 -1.129002,1.580585 -0.839844,2.875 C 31.306324,30.501647 31.573083,30.200753 32,30 c 0.01291,-0.0061 0.02606,-0.01235 0.03906,-0.01758 -0.01358,-0.152255 -0.01642,-0.287351 -0.0078,-0.402344 0.01609,-0.214921 0.06358,-0.348438 0.117188,-0.435547 0.04043,-0.06571 0.08463,-0.117759 0.175781,-0.173828 0.0091,0.0054 0.01877,0.01069 0.0293,0.01758 0.01635,0.01069 0.03348,0.02283 0.05273,0.03711 0.192559,0.142788 0.490502,0.470266 0.751953,0.835937 0.261451,0.365671 0.499461,0.76906 0.667969,1.074219 0.161822,0.293052 0.166014,0.30081 0.25,0.476562 C 34.61567,32.196384 35,33 35,33 Z m 1.931641,0.148437 c -0.128358,0.128943 -0.265625,0.251427 -0.410156,0.365235 L 38.5,27.833984 l 1.253906,-0.417968 -0.146484,-1.017578 -0.892578,0.296874 z m 1.457031,3.277344 c -0.0621,1.202948 -0.210535,2.548643 -0.380859,3.746094 -0.145846,1.025361 -0.302819,1.95331 -0.423828,2.621093 -0.0186,0.102636 -0.03521,0.188739 -0.04883,0.263672 h -3.820313 l -0.01172,0.05273 -0.02539,-0.05273 H 33.890625 C 33.665883,34.921699 33.171306,33.716298 32.818359,32.765625 32.593041,32.158723 32.385,31.564352 32.240234,31.03125 c -0.03941,0.03505 -0.06627,0.07179 -0.0918,0.113281 -0.0536,0.08711 -0.101108,0.220626 -0.117188,0.435547 -0.02413,0.322382 0.04029,0.807748 0.185547,1.363281 0.145259,0.555534 0.363683,1.181532 0.601562,1.822266 C 33.065193,35.430479 33.380366,36.219919 33.625,37 h 5.716797 c 0.09417,-0.5536 0.198347,-1.201837 0.296875,-1.894531 0.275802,-1.939004 0.494937,-4.26824 0.380859,-5.746094 z" /><path
       id="path45"
       style="opacity:0.15;fill:#0e141f;fill-opacity:1;stroke:none;stroke-width:1;stroke-linecap:round;stroke-linejoin:round;stroke-dasharray:none;stroke-opacity:0.501961"
       d="m 37,17 c -1.107655,1.44e-4 -2.478623,0.522725 -3,1.5 0.04357,0.05083 0.08866,0.100825 0.134766,0.150391 C 33.443682,19.199992 33,20.048404 33,21 c 0,0.170407 0.01372,0.33735 0.04102,0.5 0.125221,-0.745833 0.526341,-1.398364 1.09375,-1.849609 C 34.08866,19.600825 34.04357,19.55083 34,19.5 c 0.521377,-0.977275 1.892345,-1.499856 3,-1.5 1.656854,0 3,1.343146 3,3 l 1,7 c 0.02896,0.259749 0.04741,0.540266 0.05664,0.835938 C 41.074597,28.164925 41.060047,27.538535 41,27 l -1,-7 c 0,-1.656854 -1.343146,-3 -3,-3 z m -0.587891,2.074219 c -0.242793,0.04934 -0.488535,0.125458 -0.707031,0.226562 -0.102755,0.04755 -0.198196,0.099 -0.285156,0.154297 0.809282,0.623618 1.985202,1.145233 3.570312,1.507813 -0.007,-0.402353 -0.129124,-0.772243 -0.335937,-1.080079 -0.879006,-0.221837 -1.624435,-0.494887 -2.242188,-0.808593 z M 34.072266,21.5 c -0.04025,0.159458 -0.0625,0.32698 -0.0625,0.5 0,1.111009 0.879225,1.990234 1.990234,1.990234 0.141716,1.5e-4 0.28239,-0.01549 0.419922,-0.04492 l 1.552734,-0.332031 -0.185547,0.808594 c 0.344278,-0.330335 0.62187,-0.731718 0.833985,-1.201172 -0.07369,-0.195235 -0.147341,-0.386386 -0.220703,-0.574219 -0.173439,0.291365 -0.37787,0.549513 -0.613282,0.775391 l 0.185547,-0.808594 -1.552734,0.332031 c -0.137532,0.02943 -0.278206,0.04507 -0.419922,0.04492 -0.937885,0 -1.709692,-0.6266 -1.927734,-1.490234 z m 2.558593,3.433594 c -0.07957,0.01703 -0.159655,0.03052 -0.240234,0.04102 L 35,31 c 0,0 -1.720222,-3.601803 -3,-3 -0.878217,0.412972 -1.077572,1.247436 -0.947266,2.271484 C 31.146553,29.712567 31.430627,29.267742 32,29 c 1.279778,-0.601803 3,3 3,3 z m 1.728516,0.339844 c -0.06702,0.05953 -0.136107,0.11798 -0.207031,0.173828 l 0.5625,2.248046 1.166015,-0.388671 -0.136718,-0.955079 -1.029297,0.34375 z m 1.683594,3.509765 c -0.03736,1.335255 -0.20627,2.930049 -0.404297,4.322266 -0.145846,1.025361 -0.302819,1.95331 -0.423828,2.621093 -0.0186,0.102636 -0.03521,0.188739 -0.04883,0.263672 h -5.275391 c -0.224742,-1.068535 -0.719319,-2.273936 -1.072266,-3.224609 -0.237879,-0.640734 -0.456303,-1.266732 -0.601562,-1.822266 -0.05954,-0.227707 -0.104874,-0.442886 -0.136719,-0.640625 -0.02237,0.07334 -0.04031,0.163566 -0.04883,0.277344 -0.02413,0.322382 0.04029,0.807748 0.185547,1.363281 0.145259,0.555534 0.363683,1.181532 0.601562,1.822266 0.352947,0.950673 0.847524,2.156074 1.072266,3.224609 h 5.275391 c 0.01362,-0.07493 0.03023,-0.161036 0.04883,-0.263672 0.121009,-0.667783 0.277982,-1.595732 0.423828,-2.621093 0.250591,-1.761761 0.45463,-3.847365 0.404297,-5.322266 z" /></g></svg>
